<?xml version="1.0" encoding="UTF-8" standalone="no"?>
<svg
   width="32px"
   height="32px"
   viewBox="-256 -256 512 512"
   version="1.1"
   xml:space="preserve"
   id="svg2"
   sodipodi:docname="logo.svg"
   inkscape:version="1.3 (0e150ed, 2023-07-21)"
   xmlns:inkscape="http://www.inkscape.org/namespaces/inkscape"
   xmlns:sodipodi="http://sodipodi.sourceforge.net/DTD/sodipodi-0.dtd"
   xmlns="http://www.w3.org/2000/svg"
   xmlns:svg="http://www.w3.org/2000/svg"><defs
   id="defs2"><linearGradient
     id="swatch2"
     inkscape:swatch="solid"><stop
       style="stop-color:#cacaca;stop-opacity:1;"
       offset="0"
       id="stop2" /></linearGradient><linearGradient
     id="swatch1"
     inkscape:swatch="solid"><stop
       style="stop-color:#ffffff;stop-opacity:1;"
       offset="0"
       id="stop1" /></linearGradient><inkscape:path-effect
     effect="fillet_chamfer"
     id="path-effect2"
     is_visible="true"
     lpeversion="1"
     nodesatellites_param="F,0,0,1,0,7.1322036,0,1 @ F,0,0,1,0,7.9322036,0,1 @ F,0,0,1,0,6.3186442,0,1 @ F,0,0,1,0,7.3898307,0,1"
     radius="0"
     unit="px"
     method="auto"
     mode="F"
     chamfer_steps="1"
     flexible="false"
     use_knot_distance="true"
     apply_no_radius="true"
     apply_with_radius="true"
     only_selected="false"
     hide_knots="false" /></defs><sodipodi:namedview
   id="namedview2"
   pagecolor="#ffffff"
   bordercolor="#666666"
   borderopacity="1.0"
   inkscape:showpageshadow="2"
   inkscape:pageopacity="0.0"
   inkscape:pagecheckerboard="0"
   inkscape:deskcolor="#d1d1d1"
   inkscape:zoom="14.75"
   inkscape:cx="15.864407"
   inkscape:cy="13.79661"
   inkscape:window-width="1440"
   inkscape:window-height="872"
   inkscape:window-x="0"
   inkscape:window-y="28"
   inkscape:window-maximized="0"
   inkscape:current-layer="layer1" />&#10;    &#10;    <ellipse
   cx="0"
   cy="0"
   stroke-width="15.6468px"
   rx="75"
   ry="196"
   fill="none"
   stroke="#ffffff"
   transform="matrix(0.66934214,0.8723135,-0.87230367,0.66934969,-1.8430163,-4.1743411)"
   id="ellipse1" />&#10;    <ellipse
   cx="0"
   cy="0"
   stroke-width="15.6468px"
   rx="75"
   ry="196"
   fill="none"
   stroke="#ffffff"
   transform="matrix(0.66934214,-0.8723135,0.87230367,0.66934969,-1.8430163,-4.1743411)"
   id="ellipse2" />&#10;    <circle
   cx="0"
   cy="0"
   r="34"
   fill="#ffffff"
   id="circle2"
   transform="matrix(1.0995147,0,0,1.0995271,-1.8430163,-4.1743411)"
   style="stroke-width:0.909487" />&#10;<path
   style="fill:#f5ab23;fill-opacity:1;stroke:#cacaca;stroke-width:0.682115;stroke-linejoin:round;stroke-miterlimit:40;stroke-dasharray:none;stroke-dashoffset:0;stroke-opacity:1"
   id="rect2"
   width="27.932205"
   height="27.796612"
   x="2.1694915"
   y="2.3050847"
   transform="matrix(17.592235,0,0,17.592433,-283.31881,-285.65334)"
   inkscape:path-effect="#path-effect2"
   sodipodi:type="rect"
   d="M 9.3016951,2.3050847 H 22.169493 a 7.9322036,7.9322036 45 0 1 7.932204,7.9322033 v 13.545764 a 6.3186442,6.3186442 135 0 1 -6.318644,6.318644 H 9.5593222 A 7.3898307,7.3898307 45 0 1 2.1694915,22.711866 V 9.4372883 A 7.1322036,7.1322036 135 0 1 9.3016951,2.3050847 Z" /><text
   xml:space="preserve"
   style="font-style:normal;font-weight:normal;font-size:40px;line-height:1.25;font-family:sans-serif;fill:#000000;fill-opacity:1;stroke:none"
   x="-8.6779661"
   y="-9.8983049"
   id="text2"
   transform="matrix(16,0,0,16,-256,-256)"><tspan
     sodipodi:role="line"
     id="tspan2"
     x="-8.6779661"
     y="-9.8983049" /></text><g
   inkscape:groupmode="layer"
   id="layer1"
   inkscape:label="tmp"
   transform="translate(0,-234.30508)"><path
     style="fill:none;stroke:#000000;stroke-width:0.181898;stroke-linecap:butt;stroke-linejoin:miter;stroke-dasharray:none;stroke-opacity:1"
     d="m 10.033898,2.6440678 0.0678,26.9152542"
     id="path5"
     transform="matrix(17.592235,0,0,17.592433,-297.63114,-50.155494)" /><path
     style="fill:none;stroke:#000000;stroke-width:0.181898;stroke-linecap:butt;stroke-linejoin:miter;stroke-dasharray:none;stroke-opacity:1"
     d="m 16.813559,2.5762712 0.20339,26.9830508"
     id="path6"
     transform="matrix(17.592235,0,0,17.592433,-297.63114,-48.962786)" /><path
     style="fill:none;stroke:#000000;stroke-width:0.181898;stroke-linecap:butt;stroke-linejoin:miter;stroke-dasharray:none;stroke-opacity:1"
     d="M 23.525424,2.7118644 23.661017,29.423729"
     id="path7"
     transform="matrix(17.592235,0,0,17.592433,-296.43844,-51.348202)" /><path
     style="fill:none;stroke:#000000;stroke-width:0.181898;stroke-linecap:butt;stroke-linejoin:miter;stroke-dasharray:none;stroke-opacity:1"
     d="M 2.5762712,10.305085 29.355932,10.440678"
     id="path8"
     transform="matrix(17.592235,0,0,17.592433,-282.12612,-58.504446)" /><path
     style="fill:none;stroke:#000000;stroke-width:0.181898;stroke-linecap:butt;stroke-linejoin:miter;stroke-dasharray:none;stroke-opacity:1"
     d="M 2.5762712,10.305085 29.355932,10.440678"
     id="path8-1"
     transform="matrix(17.592235,0,0,17.592433,-279.99437,60.318911)" /><path
     style="fill:none;stroke:#000000;stroke-width:0.181898;stroke-linecap:butt;stroke-linejoin:miter;stroke-dasharray:none;stroke-opacity:1"
     d="M 2.5762712,10.305085 29.355932,10.440678"
     id="path8-1-3"
     transform="matrix(17.592235,0,0,17.592433,-279.09984,177.50234)" /><ellipse
     style="fill:#28170b;fill-opacity:1;stroke:none;stroke-width:0.173504;stroke-linejoin:round;stroke-miterlimit:40;stroke-dasharray:none;stroke-opacity:1"
     id="path9"
     cx="9.4915257"
     cy="9.9322033"
     transform="matrix(18.443299,0,0,18.443506,-297.0337,-58.310898)"
     rx="3.1864407"
     ry="3.1525424" /><ellipse
     style="fill:#28170b;fill-opacity:1;stroke:none;stroke-width:0.173418;stroke-linejoin:round;stroke-miterlimit:40;stroke-dasharray:none;stroke-opacity:1"
     id="path9-3"
     cx="9.4915257"
     cy="9.9322033"
     transform="matrix(18.45244,0,0,18.452648,-175.43657,-63.200251)"
     rx="3.1864407"
     ry="3.1525424" /><ellipse
     style="fill:#ffffff;fill-opacity:1;stroke:none;stroke-width:0.171918;stroke-linejoin:round;stroke-miterlimit:40;stroke-dasharray:none;stroke-opacity:1"
     id="path9-3-6"
     cx="9.4915257"
     cy="9.9322033"
     transform="matrix(18.613512,0,0,18.613721,-291.54709,60.700374)"
     rx="3.1864407"
     ry="3.1525424" /><ellipse
     style="fill:#ffffff;fill-opacity:1;stroke:none;stroke-width:0.171816;stroke-linejoin:round;stroke-miterlimit:40;stroke-dasharray:none;stroke-opacity:1"
     id="path9-3-6-4"
     cx="9.4915257"
     cy="9.9322033"
     transform="matrix(18.624481,0,0,18.624691,-179.5216,171.59913)"
     rx="3.1864407"
     ry="3.1525424" /><ellipse
     style="fill:#ffffff;fill-opacity:1;stroke:none;stroke-width:0.165851;stroke-linejoin:round;stroke-miterlimit:40;stroke-dasharray:none;stroke-opacity:1"
     id="path9-3-6-4-9"
     cx="9.4915257"
     cy="9.9322033"
     transform="matrix(19.294363,0,0,19.29458,-54.915716,47.737622)"
     rx="3.1864407"
     ry="3.1525424" /></g><text
   xml:space="preserve"
   style="font-style:normal;font-weight:normal;font-size:40px;line-height:1.25;font-family:Chalkduster;fill:#000000;fill-opacity:1;stroke:none;-inkscape-font-specification:'Chalkduster, Normal';font-stretch:normal;font-variant:normal;font-variant-ligatures:normal;font-variant-caps:normal;font-variant-numeric:normal;font-variant-east-asian:normal"
   x="-8.9491529"
   y="-24.677965"
   id="text3"
   transform="matrix(16,0,0,16,-256,-256)"><tspan
     sodipodi:role="line"
     id="tspan3" /></text></svg>
